<?xml version="1.0" encoding="UTF-8" standalone="no"?>
<!-- Created with Inkscape (http://www.inkscape.org/) -->

<svg
   xmlns:dc="http://purl.org/dc/elements/1.1/"
   xmlns:cc="http://creativecommons.org/ns#"
   xmlns:rdf="http://www.w3.org/1999/02/22-rdf-syntax-ns#"
   xmlns:svg="http://www.w3.org/2000/svg"
   xmlns="http://www.w3.org/2000/svg"
   xmlns:sodipodi="http://sodipodi.sourceforge.net/DTD/sodipodi-0.dtd"
   xmlns:inkscape="http://www.inkscape.org/namespaces/inkscape"
   width="45.742634mm"
   height="46.048695mm"
   viewBox="0 0 45.742634 46.048695"
   version="1.1"
   id="svg8"
   inkscape:version="0.92.2 5c3e80d, 2017-08-06"
   sodipodi:docname="kuberider.svg">
  <defs
     id="defs2" />
  <sodipodi:namedview
     id="base"
     pagecolor="#ffffff"
     bordercolor="#666666"
     borderopacity="1.0"
     inkscape:pageopacity="0.0"
     inkscape:pageshadow="2"
     inkscape:zoom="0.98994949"
     inkscape:cx="281.95249"
     inkscape:cy="64.115972"
     inkscape:document-units="mm"
     inkscape:current-layer="layer2"
     showgrid="false"
     units="mm"
     fit-margin-top="0"
     fit-margin-left="0"
     fit-margin-right="0"
     fit-margin-bottom="0"
     inkscape:window-width="1440"
     inkscape:window-height="855"
     inkscape:window-x="0"
     inkscape:window-y="1"
     inkscape:window-maximized="1" />
  <metadata
     id="metadata5">
    <rdf:RDF>
      <cc:Work
         rdf:about="">
        <dc:format>image/svg+xml</dc:format>
        <dc:type
           rdf:resource="http://purl.org/dc/dcmitype/StillImage" />
        <dc:title />
      </cc:Work>
    </rdf:RDF>
  </metadata>
  <g
     inkscape:groupmode="layer"
     id="layer2"
     inkscape:label="Layer 2"
     style="display:inline"
     transform="translate(-13.593615,-161.03803)">
    <g
       id="g166"
       transform="translate(-84.991709,87.129866)">
      <path
         inkscape:connector-curvature="0"
         id="path148"
         d="m 122.84878,118.90779 c -1.88863,-0.58704 -5.13966,-1.59392 -7.22451,-2.23751 -2.08485,-0.64359 -6.0182,-1.86169 -8.74077,-2.70689 -2.72257,-0.8452 -5.58227,-1.73257 -6.35489,-1.97193 -1.075702,-0.33325 -1.404772,-0.46292 -1.404772,-0.55355 0,-0.17713 0.20989,-0.14835 1.246202,0.17091 4.3616,1.34367 7.94319,2.44917 9.59057,2.96023 6.01605,1.86632 13.34665,4.14556 15.83149,4.92234 0.48166,0.15056 0.66894,0.24239 0.66894,0.32798 0,0.0654 -0.0401,0.12718 -0.0892,0.13733 -0.0491,0.0101 -1.63444,-0.46186 -3.52307,-1.04891 z m 3.82593,0.49999 c -0.024,-0.97126 -0.0321,-23.613166 -0.009,-24.613416 0.0262,-1.12876 0.0277,-1.13606 0.22298,-1.11562 l 0.19657,0.0206 0.018,11.812436 c 0.01,6.49685 0.0201,12.25541 0.0226,12.79682 l 0.005,0.98437 0.17898,-0.216 c 0.0984,-0.1188 0.23383,-0.20739 0.30086,-0.19687 0.067,0.0105 0.65861,-0.30809 1.31464,-0.70802 0.65602,-0.39993 1.99549,-1.21082 2.9766,-1.80197 0.9811,-0.59115 2.02559,-1.2237 2.32109,-1.40566 0.85651,-0.52742 6.00299,-3.65189 8.0529,-4.88897 l 1.35469,-0.81754 V 97.710004 86.162074 l -0.2785,-0.17107 c -0.22956,-0.14101 -0.28031,-0.22167 -0.28876,-0.45896 -0.006,-0.17631 0.0325,-0.29837 0.10012,-0.31495 0.16666,-0.0409 0.13126,-0.41808 -0.0592,-0.63062 -0.13567,-0.15142 -0.17079,-0.32222 -0.18076,-0.87933 -0.007,-0.38027 -0.0405,-0.72391 -0.0749,-0.76363 -0.0676,-0.078 -0.0816,-0.11656 -0.0987,-0.27141 -0.009,-0.082 -0.0463,-0.0869 -0.2003,-0.0263 -0.13294,0.0523 -0.17113,0.053 -0.12853,0.002 0.0334,-0.0397 0.008,-0.0722 -0.0573,-0.0722 -0.0649,0 -0.15753,0.0641 -0.20595,0.14245 -0.0492,0.0796 -0.24529,0.18189 -0.44439,0.23183 -0.19599,0.0491 -0.52399,0.21041 -0.72886,0.35836 -0.28837,0.20823 -0.42304,0.26188 -0.59623,0.23752 -0.19708,-0.0277 -0.99159,0.53402 -6.67403,4.71873 -5.92748,4.36516 -6.44805,4.76595 -6.42232,4.94468 0.0237,0.16466 -0.003,0.19449 -0.17506,0.19449 -0.11169,0 -2.87362,-0.73601 -6.13762,-1.63558 -3.26401,-0.89957 -7.62027,-2.09807 -9.6806,-2.66333 -5.53478,-1.51851 -11.560192,-3.17651 -11.840172,-3.25804 -0.27412,-0.0798 -0.34341,-0.318 -0.0925,-0.318 0.084,0 1.438622,0.35288 3.010222,0.78419 1.57159,0.43131 4.38261,1.20151 6.24672,1.71156 1.8641,0.51005 4.45288,1.21851 5.75285,1.57435 2.53558,0.69408 9.06376,2.47995 11.09175,3.03429 l 1.23609,0.33788 8.33791,-6.18206 c 5.25352,-3.89517 8.40087,-6.18206 8.50809,-6.18206 0.12204,0 0.17016,-0.0464 0.17016,-0.16406 0,-0.11238 -0.0491,-0.16407 -0.15578,-0.16407 -0.1869,0 0.34209,0.12575 -9.25392,-2.19975 -14.31599,-3.46934 -15.87334,-3.85957 -15.90493,-3.98537 -0.0204,-0.0812 0.029,-0.11484 0.16877,-0.11484 0.19429,0 6.03386,1.4007 17.3862,4.17031 3.16407,0.77193 6.20439,1.51207 6.75626,1.64476 0.80033,0.19242 1.0034,0.26589 1.0034,0.36307 0,0.0781 0.0641,0.12182 0.17839,0.12182 0.20606,0 0.18419,-2.10638 0.17852,17.18556 -0.003,10.697846 0.007,11.514696 0.14626,11.589526 0.13952,0.0751 0.13964,0.091 0.002,0.23599 -0.0814,0.0855 -0.14801,0.21009 -0.14801,0.27683 0,0.0884 -0.0554,0.116 -0.20414,0.10166 -0.21499,-0.0207 -1.66782,0.84615 -14.83723,8.85321 -1.14276,0.6948 -2.13922,1.26327 -2.21436,1.26327 -0.10577,0 -0.13871,-0.0852 -0.14592,-0.37734 z m 16.92798,-33.862326 c -0.0224,-0.0632 -0.0408,-0.0115 -0.0408,0.11485 0,0.12632 0.0184,0.178 0.0408,0.11484 0.0224,-0.0632 0.0224,-0.16652 0,-0.22969 z m -8.9e-4,-1.01308 c -0.0285,-0.0524 -0.0496,-0.0368 -0.0539,0.0396 -0.004,0.0692 0.0172,0.10794 0.0468,0.0861 0.0296,-0.0218 0.0328,-0.0784 0.007,-0.12578 z m -23.01761,31.598536 c -0.20179,-0.16904 -0.73002,-0.60462 -1.17385,-0.96796 -1.04833,-0.85823 -2.78415,-2.36028 -3.1144,-2.69498 -0.14245,-0.14437 -0.56536,-0.54304 -0.93979,-0.88593 -0.64956,-0.59483 -3.26451,-3.22819 -3.61671,-3.64218 -0.0921,-0.10828 -0.6996,-0.71367 -1.34995,-1.3453 -1.11681,-1.08469 -2.36357,-2.34731 -2.87497,-2.91156 l -0.23,-0.25376 -0.055,1.53344 c -0.0302,0.84339 -0.0603,2.58556 -0.0669,3.8715 -0.009,1.80965 -0.0377,2.35378 -0.12594,2.40768 -0.14484,0.0884 -1.12869,-0.13732 -1.28974,-0.29594 -0.0811,-0.0799 -0.0992,-0.372 -0.0682,-1.09807 0.0233,-0.54408 0.0645,-1.97853 0.0916,-3.18767 0.0271,-1.20913 0.0863,-2.86287 0.13152,-3.67498 0.0452,-0.8121 0.10687,-1.95238 0.13692,-2.53395 0.0301,-0.581567 0.0709,-1.142657 0.0907,-1.246867 0.0835,-0.43941 0.11843,-5.133639 0.0456,-6.128499 -0.0804,-1.09782 -0.0524,-1.24687 0.23401,-1.24687 0.11178,0 0.88648,0.23572 1.27684,0.38851 0.1509,0.0591 0.15449,-0.14579 -0.0506,2.89272 -0.1583,2.34484 -0.2979,5.044046 -0.30272,5.853446 l -0.003,0.57066 0.73583,-0.3885 c 0.80998,-0.42764 2.25777,-1.254647 3.61562,-2.065307 0.48364,-0.28875 1.29601,-0.746479 1.80525,-1.017189 0.50924,-0.2707 1.19223,-0.65931 1.51775,-0.86357 0.32552,-0.20426 1.0498,-0.61519 1.60951,-0.91317 0.55972,-0.29798 1.38298,-0.74363 1.82949,-0.99032 0.4465,-0.2467 0.87045,-0.44854 0.94212,-0.44854 0.1693,0 0.60963,0.33863 0.60963,0.46884 0,0.13251 -0.64064,0.50725 -4.41516,2.5827 -0.3282,0.18047 -1.15712,0.6382 -1.84203,1.017179 -0.68492,0.37899 -1.51388,0.83547 -1.84214,1.0144 -2.24445,1.223457 -2.73489,1.493587 -3.45097,1.900767 -0.4415,0.25104 -0.81975,0.46586 -0.84055,0.47737 -0.0563,0.0311 2.47789,2.77224 3.27307,3.54029 0.37905,0.36612 1.18873,1.1487 1.79929,1.73906 1.59172,1.53906 2.28072,2.16796 3.1803,2.9029 0.43643,0.35656 1.25507,1.08229 1.81921,1.61274 1.0233,0.9622 1.27915,1.18875 2.51303,2.22521 1.43848,1.20833 1.67146,1.42569 1.67514,1.56287 0.004,0.15197 -0.5638,0.54618 -0.78679,0.54618 -0.0691,0 -0.29073,-0.13831 -0.49253,-0.30735 z m 10.6691,-2.85731 c -0.24571,-0.21876 -0.30151,-1.29701 -0.33887,-6.54779 -0.0219,-3.07475 -0.0783,-5.09669 -0.17853,-6.39841 -0.15596,-2.025276 -0.27177,-6.523876 -0.17746,-6.893726 0.0954,-0.37417 0.8526,-0.91421 1.74333,-1.24336 1.12497,-0.41571 1.67376,-0.51781 2.54111,-0.47277 1.23876,0.0643 2.06313,0.45126 2.66317,1.25 0.56295,0.74938 0.72721,1.22571 0.7276,2.10989 8.9e-4,1.63333 -0.61929,3.197 -1.80839,4.560919 -0.95365,1.093837 -2.02072,2.126427 -2.7586,2.669477 l -0.7321,0.53878 0.7321,0.48279 c 0.40265,0.26554 0.9347,0.59942 1.18234,0.74195 0.62387,0.35909 2.51856,1.54539 3.33305,2.08687 0.37196,0.24728 1.05757,0.67423 1.5236,0.94878 0.90445,0.53283 0.97762,0.58694 0.97974,0.7245 0.002,0.1358 -0.52863,0.46951 -0.7439,0.46774 -0.11418,-9.4e-4 -0.56865,-0.2518 -1.12776,-0.62248 -1.55383,-1.03018 -6.88339,-4.29844 -6.95579,-4.26552 -0.10586,0.0481 -0.10166,1.3541 0.0104,3.21613 0.0564,0.93843 0.11073,2.48882 0.12061,3.4453 0.01,0.95648 0.0495,2.01152 0.0881,2.34454 0.0691,0.59719 0.0672,0.60639 -0.14193,0.67199 -0.11661,0.0366 -0.29654,0.11188 -0.39984,0.16733 -0.151,0.081 -0.20626,0.0844 -0.28189,0.0171 z m 1.51309,-11.45324 c 1.28063,-0.95516 1.78036,-1.39464 2.53901,-2.232827 0.82082,-0.90689 1.44826,-1.826029 1.7355,-2.542319 0.1909,-0.47604 0.21006,-0.64725 0.20932,-1.86934 -8.9e-4,-1.52226 -0.007,-1.53981 -0.7325,-2.11048 -0.60282,-0.47418 -1.42129,-0.61464 -2.61278,-0.44838 -0.79416,0.11081 -1.3163,0.31595 -2.33819,0.91862 -0.0371,0.0219 -0.0279,1.64755 0.0203,3.61264 0.0953,3.882396 0.16535,5.311926 0.26033,5.311926 0.0336,0 0.44719,-0.28792 0.91902,-0.63984 z m -34.179732,5.0531 c -0.007,-16.996606 0.0123,-21.575086 0.0931,-21.634536 0.057,-0.0419 0.12179,-0.0389 0.1865,0.009 0.0719,0.0529 0.10335,3.27161 0.11436,11.71072 0.008,6.400756 0.002,12.309576 -0.0132,13.130706 -0.0273,1.43286 -0.0355,1.49296 -0.20355,1.49296 -0.1724,0 -0.17516,-0.0734 -0.17718,-4.70858 z m 0.45293,-21.656126 c 0.003,-0.0632 0.31377,-0.29518 0.69124,-0.51559 0.377462,-0.22041 2.632902,-1.5623 5.012092,-2.98198 5.49275,-3.27758 7.44088,-4.4352 10.68598,-6.34984 2.46614,-1.45505 2.6227,-1.53598 2.76494,-1.42931 0.1418,0.10634 0.13673,0.1216 -0.0851,0.25625 -0.77201,0.46851 -6.22312,3.71281 -8.99339,5.35253 -8.16311,4.83175 -9.796842,5.78278 -9.933972,5.78278 -0.0821,0 -0.1445,-0.0506 -0.14174,-0.11484 z"
         style="fill:#000000;stroke-width:0.07650595" />
      <path
         transform="scale(0.26458333)"
         inkscape:connector-curvature="0"
         id="path153"
         d="m 480.8122,401.50411 c 0,-36.71169 0.29322,-48.19261 1.26269,-49.4407 2.40372,-3.09454 45.73099,-34.35069 50.94798,-36.7537 2.88122,-1.32713 5.44525,-2.41296 5.69786,-2.41296 0.54874,0 1.71704,6.6575 1.71959,9.79892 9.9e-4,1.22253 0.44941,2.49942 0.99649,2.83754 0.62776,0.38797 0.9947,16.56398 0.9947,43.84969 v 43.23494 l -27.52666,16.67465 c -15.13966,9.17107 -29.004,17.42887 -30.80965,18.3507 l -3.283,1.67603 z m 18.319,7.80086 c -0.30756,-14.90985 -0.13979,-17.7409 1.01016,-17.04601 0.75843,0.45831 6.37923,3.97191 12.49065,7.808 16.00195,10.04429 16.58996,10.31491 18.42503,8.47984 1.33504,-1.33504 1.23459,-1.67645 -0.88319,-3.00201 -11.57866,-7.24724 -25.69052,-16.17539 -25.98045,-16.43705 -0.19656,-0.17739 2.62986,-3.11696 6.28095,-6.53237 14.00345,-13.09954 16.57567,-28.95899 5.60753,-34.57425 -4.26964,-2.18589 -9.25792,-2.24916 -15.28964,-0.19395 -8.591,2.92725 -8.17893,0.43163 -6.9863,42.31203 0.57893,20.32948 1.33174,37.41437 1.67292,37.9664 0.39583,0.64047 1.23569,0.659 2.32074,0.0512 1.51644,-0.84946 1.66052,-2.88705 1.3316,-18.83181 z"
         style="fill:#62b8c4;fill-opacity:1;stroke-width:1.01015258" />
      <path
         transform="scale(0.26458333)"
         inkscape:connector-curvature="0"
         id="path155"
         d="m 497.9848,369.57497 v -16.05276 l 4.06105,-1.62491 c 5.52857,-2.21209 10.28243,-2.0468 13.48039,0.46871 2.29827,1.80782 2.66161,2.85112 2.66161,7.64256 0,6.04219 -0.74346,7.96047 -5.37417,13.86648 -3.17004,4.04308 -12.29445,11.75268 -13.90944,11.75268 -0.51392,0 -0.91944,-7.08016 -0.91944,-16.05276 z"
         style="fill:#62b8c4;fill-opacity:1;stroke-width:1.01015258" />
      <path
         transform="scale(0.26458333)"
         inkscape:connector-curvature="0"
         id="path157"
         d="m 457.5787,445.62871 c -11.38947,-3.58107 -34.11791,-10.62281 -50.50763,-15.64833 -16.38973,-5.02552 -30.36771,-9.31883 -31.06219,-9.54068 -0.98654,-0.31516 -1.26269,-10.79372 -1.26269,-47.91225 0,-26.12988 0.31628,-47.50887 0.70284,-47.50887 0.38657,0 23.22864,6.16381 50.76017,13.69736 27.53152,7.53355 50.4087,13.78735 50.83818,13.89734 0.7366,0.18865 2.32128,99.77388 1.585,99.60549 -0.19006,-0.0435 -9.66421,-3.00899 -21.05368,-6.59006 z m 2.52538,-7.51295 c 0,-0.85531 -7.2731,-7.97773 -16.16244,-15.82758 -8.88935,-7.84984 -20.69576,-18.85132 -26.23647,-24.44772 -8.71409,-8.80166 -9.87319,-10.36035 -8.5863,-11.54629 0.81825,-0.75407 10.80639,-6.47746 22.19586,-12.71865 11.38947,-6.24119 21.13997,-11.76477 21.66777,-12.27461 0.60367,-0.58313 0.51017,-1.37646 -0.25204,-2.13868 -1.52471,-1.5247 -4.28581,-0.2142 -28.02484,13.30145 -9.78932,5.57348 -18.03877,10.13359 -18.33213,10.13359 -0.54194,0 0.29437,-18.0546 1.31592,-28.4086 0.55202,-5.5951 0.51505,-5.69598 -2.46847,-6.73605 -1.66589,-0.58073 -3.29481,-0.78994 -3.61984,-0.46492 -0.32502,0.32502 -0.58297,4.26538 -0.57323,8.75635 0.01,4.49097 -0.53287,20.58479 -1.20582,35.76405 -1.30229,29.37473 -1.29759,29.41607 3.34737,29.4595 1.42029,0.0133 1.75862,-2.00146 2.39276,-14.24917 l 0.73858,-14.26465 18.31536,18.21629 c 22.35007,22.22916 30.76126,29.57995 33.46765,29.24836 1.11117,-0.13615 2.02031,-0.94734 2.02031,-1.80267 z"
         style="fill:#98d5c3;fill-opacity:1;stroke-width:1.01015258" />
      <path
         transform="scale(0.26458333)"
         inkscape:connector-curvature="0"
         id="path159"
         d="m 432.32488,338.26193 c -23.61231,-6.51407 -46.01206,-12.66703 -49.77722,-13.67325 l -6.84574,-1.82949 7.85589,-4.56011 c 4.32074,-2.50807 20.35653,-11.97919 35.63509,-21.04695 l 27.77919,-16.48683 15.65737,3.89662 c 8.61155,2.14314 30.08393,7.40261 47.7164,11.68772 l 32.05903,7.7911 -7.31029,5.2508 c -4.02067,2.88795 -18.16747,13.29007 -31.43734,23.11583 -14.36143,10.63401 -24.99198,17.83128 -26.26397,17.78167 -1.17531,-0.0458 -21.45609,-5.41305 -45.06841,-11.92711 z"
         style="fill:#98d5c3;fill-opacity:1;stroke-width:1.01015258" />
    </g>
  </g>
</svg>
